<svg id="Capa_1" data-name="Capa 1" xmlns="http://www.w3.org/2000/svg" viewBox="0 0 442.62 422.31"><defs><style>.cls-1,.cls-3{fill:#fff;}.cls-2{fill:none;stroke:#d02017;}.cls-2,.cls-3{stroke-miterlimit:10;}.cls-3{stroke:#fff;}</style></defs><title>logo_gameclub</title><path class="cls-1" d="M228.81,344.17,242.55,339,210.24,97.29l248,59.49,2.28-10.14L210.24,86.49s-8.81.09-10.61,6.72Z" transform="translate(-199.63 -86.49)"/><path class="cls-1" d="M468.31,148.49,466,158.67l92,22s6.68.29,8.53,6.92L628,430.81H575.64l19,18.14h43.72s6.35,1.47,2.84-12.7L577.82,186.1s-3.31-13.07-10.09-13.5Z" transform="translate(-199.63 -86.49)"/><path class="cls-1" d="M308.07,438.84,249.21,437s-8.46-.92-10.39-14l-9.35-74.18,13.93-4.64,9.73,69.19L569.3,430.88,588.36,449l-192.17-6-7,35.43s-5.37,23.37,18.5,25.64l124.87,2.53s1.64,1.33-.13,2.21H307.32s-22.36-2-13.39-34.29Z" transform="translate(-199.63 -86.49)"/><path class="cls-2" d="M416.86,281.72" transform="translate(-199.63 -86.49)"/><polygon class="cls-3" points="219.64 249.85 197.62 271.95 130.49 268.83 101.3 242.02 84.29 116.67 106.96 95.39 175.91 111.92 204.85 140.88 209.76 173.14 183.63 168.84 179.13 135.72 110.56 121.95 127.09 243.72 194.39 248.18 189.52 212.26 151.97 207.51 151.97 187.2 212.23 195.23 219.64 249.85"/><polygon class="cls-3" points="343.97 228.16 347.98 257.68 326.08 277.46 259.95 274.39 229.64 249.85 214.85 140.88 239.66 124.81 307.55 140.88 335.41 165.09 338.72 189.44 313.46 185.98 310.14 160.02 242.75 146.49 256.87 251.65 323.17 256.04 319.01 225.41 343.97 228.16"/></svg>